<svg width="67" height="67" viewBox="0 0 67 67" fill="none" xmlns="http://www.w3.org/2000/svg">
<path d="M49.6221 30.3909H22.307L30.6674 20.4806C31.0583 20.0164 31.2464 19.418 31.1902 18.8169C31.1341 18.2159 30.8383 17.6615 30.3679 17.2756C29.8976 16.8898 29.2912 16.7042 28.6822 16.7596C28.0732 16.815 27.5115 17.1069 27.1205 17.5711L15.6049 31.2092C15.5274 31.3177 15.4582 31.4316 15.3976 31.5501C15.3976 31.6638 15.3976 31.732 15.2364 31.8456C15.132 32.1063 15.0774 32.3837 15.0752 32.6639C15.0774 32.9442 15.132 33.2216 15.2364 33.4822C15.2364 33.5959 15.2364 33.664 15.3976 33.7777C15.4582 33.8962 15.5274 34.0102 15.6049 34.1186L27.1205 47.7567C27.3371 48.0133 27.6083 48.2196 27.9148 48.3611C28.2213 48.5025 28.5556 48.5755 28.8939 48.575C29.4321 48.576 29.9536 48.3911 30.3679 48.0522C30.6012 47.8614 30.7939 47.627 30.9352 47.3626C31.0765 47.0981 31.1636 46.8088 31.1914 46.511C31.2192 46.2133 31.1872 45.9131 31.0973 45.6276C31.0074 45.3421 30.8613 45.0769 30.6674 44.8473L22.307 34.9369H49.6221C50.2329 34.9369 50.8187 34.6975 51.2506 34.2712C51.6825 33.8449 51.9252 33.2668 51.9252 32.6639C51.9252 32.0611 51.6825 31.4829 51.2506 31.0567C50.8187 30.6304 50.2329 30.3909 49.6221 30.3909Z" fill="white"/>
<circle cx="33.5" cy="33.5" r="32" stroke="white" stroke-width="3"/>
</svg>
