<?xml version="1.0" encoding="utf-8"?>
<!-- Generator: Adobe Illustrator 24.2.1, SVG Export Plug-In . SVG Version: 6.00 Build 0)  -->
<svg version="1.1" id="Слой_1" xmlns="http://www.w3.org/2000/svg" xmlns:xlink="http://www.w3.org/1999/xlink" x="0px" y="0px"
	 viewBox="0 0 1828.08 648.22" style="enable-background:new 0 0 1828.08 648.22;" xml:space="preserve">
<style type="text/css">
	.st0{fill:#FFFFFF;}
</style>
<g>
	<g>
		<path class="st0" d="M237.48,236.85v75.91h98.31v13.92h-98.31v98.58h-14.73V222.92h135.71v13.93H237.48z"/>
		<polygon class="st0" points="249.43,437.22 210.8,437.22 210.8,210.97 370.41,210.97 370.41,248.8 249.43,248.8 249.43,300.82 
			347.74,300.82 347.74,338.64 249.43,338.64 		"/>
	</g>
	<g>
		<path class="st0" d="M556.71,383.77c-3.09,11.1-7.91,20.02-14.47,26.76s-14.89,11.51-24.98,14.33
			c-10.11,2.82-22.18,4.23-36.18,4.23c-13.84,0-25.78-1.41-35.78-4.23c-10.02-2.82-18.27-7.6-24.71-14.33
			c-6.47-6.73-11.24-15.66-14.33-26.76c-3.11-11.11-4.64-24.86-4.64-41.23V222.92h14.73v119.07c0,13.47,1,24.89,3,34.27
			c2,9.38,5.47,16.98,10.38,22.8c4.93,5.82,11.51,10.01,19.8,12.56c8.29,2.56,18.8,3.82,31.56,3.82c13.09,0,23.89-1.27,32.36-3.82
			c8.47-2.54,15.16-6.73,20.07-12.56c4.91-5.82,8.33-13.42,10.24-22.8c1.91-9.38,2.87-20.8,2.87-34.27V222.92h14.73v119.61
			C561.35,358.91,559.8,372.66,556.71,383.77z"/>
		<path class="st0" d="M481.09,441.04c-14.88,0-28.01-1.58-39.03-4.68c-12.06-3.4-22.18-9.31-30.1-17.57
			c-7.8-8.12-13.6-18.83-17.21-31.82c-3.42-12.2-5.08-26.74-5.08-44.44V210.97h38.63v131.02c0,12.55,0.92,23.25,2.74,31.78
			c1.58,7.38,4.21,13.3,7.82,17.58c3.45,4.08,8.1,6.98,14.18,8.84c7.09,2.19,16.52,3.29,28.05,3.29c11.9,0,21.62-1.11,28.9-3.31
			c6.26-1.88,10.97-4.77,14.39-8.82c3.6-4.26,6.18-10.14,7.67-17.48c1.75-8.54,2.63-19.27,2.63-31.89V210.97h38.63v131.56
			c0,17.36-1.71,32.31-5.08,44.43v0c-3.62,13.01-9.48,23.74-17.42,31.89c-8.01,8.23-18.21,14.12-30.32,17.51
			C509.36,439.47,496.11,441.04,481.09,441.04z"/>
	</g>
	<g>
		<path class="st0" d="M718.36,236.85v188.42h-14.73V236.85h-79.74v-13.93h174.2v13.93H718.36z"/>
		<polygon class="st0" points="730.3,437.22 691.68,437.22 691.68,248.8 611.94,248.8 611.94,210.97 810.04,210.97 810.04,248.8 
			730.3,248.8 		"/>
	</g>
	<g>
		<path class="st0" d="M900.52,370.66v54.61h-14.2v-54.61H768.63v-9.83l121.25-134.89h10.64V357h43.96v13.66H900.52z M867.89,270.44
			c-6.67,7.47-13.36,15.01-20.09,22.66L790.74,357h95.58v-59.8c0-8.73,0.04-17.24,0.13-25.53c0.09-8.28,0.6-16.24,1.51-23.89
			C881.23,255.42,874.54,262.98,867.89,270.44z"/>
		<path class="st0" d="M912.46,437.22h-38.1V382.6H756.68v-26.36l127.87-142.26h17.25l2.57-2.91l-0.35,2.91h8.45v131.07h43.96v37.55
			h-43.96V437.22z M817.43,345.05h56.94V297.2c0-5.46,0.02-10.83,0.05-16.12c-5.86,6.57-11.73,13.21-17.65,19.92L817.43,345.05z"/>
	</g>
	<g>
		<path class="st0" d="M1051.79,338.98v86.29h-14.76v-86.29l-87.38-116.06h17.76l40.67,54.35c6.02,8.19,12.07,16.24,18.18,24.17
			c6.09,7.92,12.13,15.98,18.16,24.17c6.18-8.19,12.29-16.29,18.29-24.3c6-8.01,12.02-16.11,18.02-24.31l40.69-54.07h17.76
			L1051.79,338.98z"/>
		<path class="st0" d="M1063.73,437.22h-38.65v-94.24l-99.39-132h47.69l44.25,59.14c6.37,8.67,12.27,16.5,18.07,24.03
			c2.93,3.82,5.85,7.66,8.76,11.53c2.91-3.86,5.8-7.7,8.66-11.52c5.97-7.98,11.97-16.04,17.94-24.21l44.37-58.96h47.67l-99.39,132
			V437.22z"/>
	</g>
	<g>
		<path class="st0" d="M1364.46,370.38c-6.18,13.11-14.42,24.03-24.71,32.78c-10.27,8.73-22.11,15.24-35.49,19.52
			c-13.38,4.28-27.18,6.41-41.38,6.41c-14.2,0-27.98-2.13-41.36-6.41c-13.38-4.28-25.22-10.79-35.51-19.52
			c-10.29-8.74-18.51-19.67-24.71-32.78c-6.18-13.1-9.29-28.49-9.29-46.15v-0.27c0-17.66,3.11-33.05,9.29-46.16
			c6.2-13.1,14.42-24.03,24.71-32.77c10.29-8.73,22.13-15.24,35.51-19.52c13.38-4.28,27.16-6.42,41.36-6.42
			c14.2,0,28,2.14,41.38,6.42c13.38,4.28,25.22,10.79,35.49,19.52c10.29,8.73,18.53,19.71,24.71,32.9
			c6.2,13.21,9.29,28.63,9.29,46.29C1373.75,341.89,1370.66,357.28,1364.46,370.38z M1351.08,283.41
			c-5.27-11.56-12.33-21.07-21.16-28.53c-8.82-7.47-19.07-13.07-30.71-16.8c-11.67-3.72-23.76-5.59-36.33-5.59h-0.27
			c-12.56,0-24.62,1.87-36.18,5.59c-11.56,3.73-21.76,9.33-30.58,16.8c-8.84,7.47-15.89,16.98-21.18,28.53
			c-5.27,11.57-7.91,25.08-7.91,40.56c0,15.47,2.64,28.95,7.91,40.41c5.29,11.47,12.33,20.93,21.18,28.4
			c8.82,7.47,19.07,13.06,30.71,16.79c11.64,3.73,23.76,5.6,36.31,5.6c12.58,0,24.67-1.87,36.33-5.6
			c11.64-3.73,21.89-9.32,30.71-16.79c8.82-7.47,15.89-16.93,21.16-28.4c5.29-11.47,7.93-24.95,7.93-40.41
			C1359.02,308.49,1356.37,294.98,1351.08,283.41z"/>
		<path class="st0" d="M1262.88,441.04c-15.37,0-30.51-2.35-45-6.98c-14.83-4.74-28.15-12.08-39.6-21.8
			c-11.52-9.79-20.87-22.16-27.78-36.78c-6.93-14.7-10.44-31.94-10.44-51.26c0-19.58,3.51-36.82,10.43-51.52
			c6.94-14.65,16.29-27.02,27.79-36.79c11.45-9.72,24.78-17.05,39.6-21.79c29.02-9.28,61-9.27,90.02,0
			c14.84,4.75,28.16,12.08,39.59,21.8c11.56,9.81,20.91,22.24,27.79,36.94c6.91,14.72,10.42,32.01,10.42,51.36
			c0,19.37-3.51,36.61-10.44,51.24c-6.87,14.58-16.21,26.95-27.78,36.78c-11.43,9.72-24.75,17.06-39.59,21.8
			C1293.42,438.69,1278.27,441.04,1262.88,441.04z M1262.88,244.43c-11.51,0-22.45,1.69-32.78,5.01
			c-10.01,3.23-18.94,8.13-26.52,14.55c-7.44,6.28-13.5,14.48-18.04,24.39c-4.52,9.94-6.82,21.92-6.82,35.58
			c0,13.65,2.3,25.57,6.82,35.42c4.53,9.82,10.6,17.99,18.03,24.25c7.58,6.41,16.54,11.3,26.66,14.54c20.8,6.67,44.48,6.68,65.35,0
			c10.11-3.24,19.07-8.13,26.63-14.53c7.46-6.31,13.52-14.47,18.02-24.26c4.54-9.85,6.84-21.76,6.84-35.42
			c0-13.67-2.31-25.64-6.85-35.59l-0.01-0.01c-4.49-9.86-10.55-18.06-18-24.37c-7.58-6.41-16.55-11.3-26.64-14.54
			C1285.14,246.12,1274.13,244.43,1262.88,244.43z"/>
	</g>
	<g>
		<path class="st0" d="M1600.69,383.77c-3.09,11.1-7.91,20.02-14.47,26.76c-6.56,6.73-14.89,11.51-24.98,14.33
			c-10.11,2.82-22.18,4.23-36.18,4.23c-13.84,0-25.78-1.41-35.78-4.23c-10.02-2.82-18.27-7.6-24.71-14.33
			c-6.47-6.73-11.24-15.66-14.33-26.76c-3.11-11.11-4.64-24.86-4.64-41.23V222.92h14.73v119.07c0,13.47,1,24.89,3,34.27
			c2,9.38,5.47,16.98,10.38,22.8c4.93,5.82,11.51,10.01,19.8,12.56c8.29,2.56,18.8,3.82,31.56,3.82c13.09,0,23.89-1.27,32.36-3.82
			c8.47-2.54,15.16-6.73,20.07-12.56s8.33-13.42,10.24-22.8c1.91-9.38,2.87-20.8,2.87-34.27V222.92h14.73v119.61
			C1605.33,358.91,1603.78,372.66,1600.69,383.77z"/>
		<path class="st0" d="M1525.07,441.04c-14.88,0-28.01-1.58-39.02-4.68c-12.06-3.4-22.19-9.31-30.1-17.57
			c-7.81-8.13-13.6-18.84-17.21-31.82c-3.42-12.22-5.08-26.76-5.08-44.44V210.97h38.63v131.02c0,12.57,0.92,23.27,2.74,31.77
			c1.57,7.38,4.2,13.3,7.82,17.59c3.45,4.07,8.09,6.97,14.18,8.84c7.09,2.19,16.52,3.29,28.05,3.29c11.9,0,21.62-1.11,28.9-3.31
			c6.26-1.88,10.97-4.77,14.39-8.83c3.59-4.25,6.17-10.14,7.67-17.48c1.74-8.55,2.62-19.28,2.62-31.88V210.97h38.63v131.56
			c0,17.36-1.71,32.31-5.08,44.43l0,0c-3.62,13-9.48,23.73-17.41,31.89c-8.02,8.23-18.22,14.12-30.33,17.51
			C1553.35,439.47,1540.09,441.04,1525.07,441.04z"/>
	</g>
</g>
</svg>
