<svg width="73" height="73" viewBox="0 0 73 73" fill="none" xmlns="http://www.w3.org/2000/svg">
<path d="M36.5 18.25C34.2441 18.25 32.0388 18.919 30.163 20.1723C28.2873 21.4256 26.8253 23.207 25.962 25.2913C25.0987 27.3755 24.8728 29.6689 25.3129 31.8815C25.753 34.0941 26.8394 36.1265 28.4346 37.7217C30.0298 39.3169 32.0622 40.4032 34.2748 40.8433C36.4874 41.2834 38.7808 41.0576 40.865 40.1943C42.9492 39.3309 44.7306 37.869 45.984 35.9932C47.2373 34.1175 47.9063 31.9122 47.9063 29.6562C47.9063 26.6311 46.7045 23.7299 44.5654 21.5908C42.4264 19.4517 39.5251 18.25 36.5 18.25Z" fill="white"/>
<path d="M36.5 4.5625C30.1834 4.5625 24.0086 6.4356 18.7565 9.94494C13.5044 13.4543 9.41088 18.4422 6.99361 24.278C4.57634 30.1139 3.94387 36.5354 5.17618 42.7307C6.4085 48.926 9.45025 54.6167 13.9168 59.0832C18.3833 63.5498 24.074 66.5915 30.2693 67.8238C36.4646 69.0561 42.8861 68.4237 48.722 66.0064C54.5578 63.5891 59.5457 59.4956 63.0551 54.2435C66.5644 48.9914 68.4375 42.8166 68.4375 36.5C68.4278 28.0326 65.0599 19.9148 59.0726 13.9274C53.0852 7.9401 44.9674 4.57216 36.5 4.5625V4.5625ZM54.7318 56.8624C54.6863 53.8702 53.4672 51.0156 51.3371 48.9136C49.2069 46.8117 46.3363 45.6306 43.3438 45.625H29.6563C26.6637 45.6306 23.7931 46.8117 21.663 48.9136C19.5329 51.0156 18.3137 53.8702 18.2683 56.8624C14.1314 53.1685 11.214 48.3052 9.90254 42.9164C8.59106 37.5276 8.9473 31.8676 10.9241 26.6857C12.9009 21.5039 16.405 17.0447 20.9724 13.8987C25.5398 10.7526 30.9551 9.06803 36.5012 9.06803C42.0472 9.06803 47.4625 10.7526 52.0299 13.8987C56.5973 17.0447 60.1014 21.5039 62.0782 26.6857C64.055 31.8676 64.4112 37.5276 63.0998 42.9164C61.7883 48.3052 58.8709 53.1685 54.734 56.8624H54.7318Z" fill="white"/>
</svg>
